# xmcd
#
# Track frame offsets: 
#        150
#        19433
#        35671
#        59846
#        79135
#
# Disc length: 1414 seconds
#
# Revision: 0
# Processed by: cddbd v1.5.2PL0 Copyright (c) Steve Scherf et al.
# Submitted via: ExactAudioCopy v1.1
#
DISCID=44058405
DTITLE=Van Morrison - 2002-07-12 Pizza Della Riforma Lugano, Switzerla
DTITLE=nd
DYEAR=1900
DGENRE=Blues
TTITLE0=Bright Side Of The Road
TTITLE1=Cleaning Windows
TTITLE2=Have I Told You Lately
TTITLE3=Stop Drinkin'
TTITLE4=Gloria
EXTD=
EXTT0=
EXTT1=
EXTT2=
EXTT3=
EXTT4=
PLAYORDER=
